<svg
    xmlns="http://www.w3.org/2000/svg"
    viewBox="0 0 512 512"
    id="vector">
    <path
        id="path"
        d="M 256 0 C 120.285 -4.042 -4.572 119.902 -0.414 255.834 C -2.06 380.901 100.374 499.987 226.26 510.571 C 337.395 524.289 454.784 457.478 493.879 351.345 C 532.983 255.095 507.868 135.034 428.12 66.853 C 381.56 24.579 319.27 -1.356 256 0 Z M 256 494.934 C 125.747 499.019 6.997 376.201 16.837 245.975 C 20.231 126.525 125.486 17.557 246.336 16.973 C 352.121 12.133 458.447 84.566 485.385 188.363 C 513.493 282.131 478.551 392.726 396.887 448.555 C 356.423 478.315 306.469 496.004 256 494.934 Z"
        fill="#000000"/>
    <path
        id="path_1"
        d="M 256 42.668 C 172.112 41.503 91.209 95.421 59.433 172.961 C 26.256 249.136 43.422 343.762 101.576 403.186 C 157.528 463.404 249.708 485.375 326.893 457.27 C 406.897 430.092 465.885 351.5 469.054 266.978 C 474.376 183.947 425.586 101.079 350.765 64.908 C 321.461 50.284 288.743 42.657 256 42.668 Z M 381.141 104.961 C 295.957 90.792 205.292 132.378 159.949 205.738 C 151.69 220.379 158.041 185.382 158.48 178.087 C 165.203 134.836 186.057 93.744 217.762 63.461 C 274.902 51.807 336.483 67.448 381.141 104.961 Z M 313.539 178.203 C 333.212 204.385 346.462 235.342 351.828 267.648 C 338.937 297.685 318.8 324.57 293.605 345.394 C 261.137 349.27 227.771 345.298 197.121 333.91 C 177.382 307.727 164.115 276.716 158.805 244.359 C 171.685 214.348 191.769 187.47 216.899 166.613 C 249.411 162.718 282.925 166.669 313.54 178.203 Z M 186.691 72.414 C 130.859 141.133 123.308 243.859 167.816 320.289 C 119.764 293.608 83.584 246.643 70.043 193.375 C 88.428 138.275 132.289 92.79 186.691 72.414 Z M 62.293 224.477 C 93.005 303.553 172.502 360.154 257.216 363.561 C 279.825 362.195 244.038 375.153 236.801 378.755 C 196.141 394.638 150.424 396.746 108.383 385.138 C 70.016 341.923 52.672 281.467 62.293 224.478 Z M 130.988 407.195 C 218.213 421.187 310.83 376.539 354.578 299.82 C 355.518 355.2 332.535 410.431 292.582 448.793 C 235.978 459.899 175.2 444.253 130.988 407.195 Z M 323.176 440.414 C 379.554 371.62 387.651 268.348 342.68 191.609 C 391.473 218.64 428.047 266.638 441.172 320.851 C 422.193 375.655 377.726 420.717 323.176 440.414 Z M 449.254 289.973 C 419.341 209.557 338.925 152.007 253.379 148.44 C 230.76 149.822 266.566 136.735 273.867 133.258 C 315.115 117.195 361.62 115.134 404.129 127.481 C 442.706 171.161 459.811 232.766 449.254 289.973 Z"
        fill="#000000"/>
</svg>
