<svg
    xmlns="http://www.w3.org/2000/svg"
    viewBox="0 0 94 94"
    id="vector">
    <path
        id="path"
        d="M 91.465 5.491 C 90.717 5.18 89.856 5.352 89.285 5.925 L 80.969 14.241 C 72.046 5.057 60.125 0 47.399 0 C 44.707 0 41.992 0.235 39.331 0.697 C 21.218 3.845 6.542 17.405 1.944 35.244 C 1.789 35.843 1.921 36.479 2.299 36.968 C 2.678 37.457 3.261 37.743 3.88 37.743 L 16.618 37.743 C 17.457 37.743 18.208 37.219 18.496 36.43 C 22.225 26.237 31.488 18.459 42.094 16.616 C 43.841 16.313 45.619 16.16 47.382 16.16 C 55.81 16.16 63.681 19.534 69.55 25.66 L 61.105 34.104 C 60.534 34.676 60.363 35.536 60.671 36.283 C 60.982 37.031 61.71 37.518 62.519 37.518 L 90.7 37.518 C 91.804 37.518 92.7 36.622 92.7 35.518 L 92.7 7.338 C 92.7 6.53 92.211 5.801 91.465 5.491 Z"
        fill="#000000"/>
    <path
        id="path_2"
        d="M 90.192 56.328 L 77.455 56.328 C 76.616 56.328 75.865 56.851 75.577 57.64 C 71.848 67.833 62.585 75.612 51.979 77.454 C 50.231 77.757 48.454 77.91 46.691 77.91 C 38.263 77.91 30.391 74.536 24.523 68.41 L 32.967 59.966 C 33.539 59.394 33.71 58.534 33.401 57.787 C 33.091 57.039 32.362 56.552 31.553 56.552 L 3.374 56.552 C 2.27 56.552 1.374 57.448 1.374 58.552 L 1.374 86.733 C 1.374 87.542 1.861 88.271 2.609 88.581 C 3.355 88.891 4.216 88.719 4.788 88.146 L 13.104 79.831 C 22.026 89.014 33.947 94.072 46.673 94.072 C 49.366 94.072 52.081 93.837 54.742 93.375 C 72.854 90.229 87.531 76.667 92.129 58.828 C 92.284 58.228 92.152 57.594 91.775 57.103 C 91.395 56.615 90.811 56.328 90.192 56.328 Z"
        fill="#000000"/>
</svg>
