<svg
    xmlns="http://www.w3.org/2000/svg"
    viewBox="0 0 404 404"
    id="vector">
    <path
        id="path_2"
        d="M 189.387 212.787 C 189.387 212.787 189.231 212.787 189.211 212.787 L 158.187 212.787 L 158.187 67.187 C 158.187 62.387 154.187 58.387 149.387 58.387 L 49.387 58.387 C 44.587 58.387 40.587 62.387 40.587 67.187 L 40.587 213.187 L 8.987 213.187 C 5.787 213.187 2.587 215.187 0.987 217.987 C -0.613 221.187 -0.213 224.387 1.787 227.187 L 92.187 343.187 C 93.787 345.187 96.187 346.387 98.987 346.387 C 101.787 346.387 104.187 345.187 105.787 343.187 L 195.787 227.187 C 197.787 224.387 198.187 220.787 196.587 217.987 C 195.387 214.787 192.587 212.787 189.387 212.787 Z M 99.387 323.587 L 26.987 230.387 L 49.387 230.387 C 54.187 230.387 58.187 226.387 58.187 221.587 L 58.187 75.987 L 140.587 75.987 L 140.587 221.587 C 140.587 223.987 141.387 225.987 142.987 227.587 C 144.587 229.187 146.987 229.987 148.987 229.987 L 171.387 229.987 L 99.387 323.587 Z"
        fill="#000000"/>
    <path
        id="path_3"
        d="M 402.987 177.587 L 311.787 61.587 C 310.187 59.587 307.787 58.387 304.987 58.387 C 302.187 58.387 299.787 59.587 298.187 61.587 L 208.187 177.587 C 206.187 180.387 205.787 183.987 207.387 186.787 C 208.987 189.587 211.787 191.587 215.387 191.587 L 246.587 191.587 L 246.587 337.587 C 246.587 342.387 250.587 346.387 255.387 346.387 L 355.387 346.387 C 360.187 346.387 364.187 342.387 364.187 337.587 L 364.187 191.587 L 395.787 191.587 C 398.987 191.587 402.187 189.587 403.787 186.787 C 405.387 183.587 404.987 180.387 402.987 177.587 Z M 355.387 174.387 C 350.587 174.387 346.587 178.387 346.587 183.187 L 346.587 328.787 L 264.187 328.787 L 264.187 183.187 C 264.187 180.787 263.387 178.787 261.787 177.187 C 260.187 175.587 257.787 174.787 255.787 174.787 L 233.387 174.787 L 305.387 81.587 L 377.387 174.387 L 355.387 174.387 Z"
        fill="#000000"/>
</svg>
