<svg
    xmlns="http://www.w3.org/2000/svg"
    viewBox="0 0 174 199"
    id="vector">
    <path
        id="path_1"
        d="M 173.542 84.597 L 90.203 1.216 C 89.42 0.433 88.362 0 87.254 0 C 86.146 0 85.088 0.442 84.305 1.225 L 1.216 84.597 C 0.025 85.788 -0.325 87.579 0.316 89.137 C 0.966 90.695 2.482 91.703 4.165 91.703 L 49.983 91.703 L 49.983 195.835 C 49.983 198.134 51.849 200 54.148 200 L 120.792 200 C 123.091 200 124.957 198.134 124.957 195.835 L 124.958 91.702 L 170.601 91.702 C 172.284 91.702 173.8 90.686 174.45 89.128 C 175.1 87.57 174.733 85.788 173.542 84.596 Z"
        fill="#000000"/>
</svg>
