<svg
    xmlns="http://www.w3.org/2000/svg"
    viewBox="0 0 490 490"
    id="vector">
    <path
        id="path"
        d="M 245.333 0 C 110.059 0 0 110.059 0 245.333 C 0 380.607 110.059 490.666 245.333 490.666 C 380.607 490.666 490.666 380.607 490.666 245.333 C 490.666 110.059 380.608 0 245.333 0 Z M 404.523 228.075 C 402.88 232.064 398.976 234.667 394.667 234.667 L 320 234.667 L 320 394.496 C 320 400.384 315.221 405.163 309.333 405.163 L 181.333 405.163 C 175.445 405.163 170.666 400.384 170.666 394.496 L 170.666 234.667 L 96 234.667 C 91.691 234.667 87.787 232.064 86.144 228.075 C 84.501 224.086 85.397 219.499 88.448 216.448 L 237.781 66.944 C 241.792 62.933 248.874 62.933 252.864 66.944 L 402.197 216.448 C 405.269 219.52 406.165 224.107 404.523 228.075 Z"
        fill="#000000"/>
</svg>
