<svg
    xmlns="http://www.w3.org/2000/svg"
    viewBox="0 0 174 199"
    id="vector">
    <path
        id="path_1"
        d="M 1.226 115.403 L 84.565 198.784 C 85.348 199.567 86.406 200 87.514 200 C 88.622 200 89.68 199.558 90.463 198.775 L 173.552 115.403 C 174.743 114.212 175.093 112.421 174.452 110.863 C 173.802 109.305 172.286 108.297 170.603 108.297 L 124.785 108.297 L 124.785 4.165 C 124.785 1.866 122.919 0 120.62 0 L 53.976 0 C 51.677 0 49.811 1.866 49.811 4.165 L 49.81 108.298 L 4.167 108.298 C 2.484 108.298 0.968 109.314 0.318 110.872 C -0.332 112.43 0.035 114.212 1.226 115.404 Z"
        fill="#000000"/>
</svg>
