<svg
    xmlns="http://www.w3.org/2000/svg"
    viewBox="0 0 94 94"
    id="vector">
    <path
        id="path"
        d="M 47 0 C 21.042 0 0 21.043 0 47 C 0 72.957 21.042 94 47 94 C 72.958 94 94 72.957 94 47 C 94 21.043 72.958 0 47 0 Z M 9.05 29.668 L 18.082 33.793 C 21.679 26.553 27.689 20.917 35.23 17.795 C 43.496 14.371 52.6 14.372 60.865 17.795 C 69.131 21.219 75.568 27.656 78.991 35.923 L 71.105 39.19 C 68.554 33.029 63.756 28.233 57.597 25.682 C 51.439 23.131 44.654 23.129 38.495 25.682 C 32.966 27.971 28.541 32.073 25.848 37.341 L 35.867 41.917 L 16.333 49.2 L 9.05 29.668 Z M 75.918 60.207 C 72.32 67.447 66.311 73.083 58.77 76.205 C 50.504 79.629 41.401 79.628 33.135 76.205 C 24.869 72.781 18.432 66.344 15.009 58.077 L 22.894 54.81 C 25.446 60.97 30.243 65.767 36.402 68.318 C 42.561 70.869 49.346 70.871 55.504 68.318 C 61.033 66.027 65.458 61.925 68.15 56.659 L 58.131 52.083 L 77.667 44.8 L 84.95 64.332 L 75.918 60.207 Z"
        fill="#000000"/>
</svg>
