<svg
    xmlns="http://www.w3.org/2000/svg"
    viewBox="0 0 511 511"
    id="vector">
    <path
        id="path_1"
        d="M 508.792 246.401 L 412.792 118.401 C 408.664 112.897 401.432 110.593 394.904 112.833 C 388.408 115.009 383.992 121.121 383.992 128.001 L 383.992 192.001 L 127.992 192.001 L 127.992 128.001 C 127.992 121.121 123.576 115.009 117.048 112.833 C 110.488 110.625 103.32 112.897 99.192 118.401 L 3.192 246.401 C -1.064 252.097 -1.064 259.905 3.192 265.601 L 99.192 393.601 C 103.32 399.137 110.456 401.313 117.048 399.201 C 123.576 396.993 127.992 390.881 127.992 384.001 L 127.992 320.001 L 383.992 320.001 L 383.992 384.001 C 383.992 390.881 388.408 396.993 394.936 399.201 C 396.6 399.745 398.296 400.001 399.992 400.001 C 404.92 400.001 409.72 397.729 412.792 393.601 L 508.792 265.601 C 513.048 259.905 513.048 252.097 508.792 246.401 Z"
        fill="#000000"/>
</svg>
