<svg
    xmlns="http://www.w3.org/2000/svg"
    viewBox="0 0 512 512"
    id="vector">
    <path
        id="path"
        d="M 160 191.996 L 160 143.996 C 160 137.724 156.32 132.028 150.624 129.436 C 144.896 126.812 138.176 127.836 133.472 131.964 L 5.472 243.964 C 1.984 247.004 0 251.388 0 255.996 C 0 260.604 1.984 264.988 5.472 268.028 L 133.472 380.028 C 138.176 384.188 144.928 385.18 150.624 382.556 C 156.32 379.964 160 374.268 160 367.996 L 160 319.996 L 194.112 319.996 L 279.424 191.996 L 160 191.996 Z"
        fill="#000000"/>
    <path
        id="path_2"
        d="M 506.528 243.964 L 378.528 131.964 C 373.824 127.868 367.136 126.876 361.376 129.436 C 355.648 132.028 352 137.724 352 143.996 L 352 191.996 L 317.888 191.996 L 232.544 319.996 L 352 319.996 L 352 367.996 C 352 374.268 355.648 379.964 361.376 382.556 C 363.488 383.516 365.76 383.996 368 383.996 C 371.808 383.996 375.552 382.652 378.528 380.028 L 506.528 268.028 C 510.016 264.988 512 260.604 512 255.996 C 512 251.388 510.016 247.004 506.528 243.964 Z"
        fill="#000000"/>
</svg>
