<svg
    xmlns="http://www.w3.org/2000/svg"
    viewBox="0 0 512 512"
    id="vector">
    <path
        id="path"
        d="M 256.047 0 C 114.636 0 0 114.636 0 256.047 C 0 397.458 114.636 512.094 256.047 512.094 C 397.458 512.094 512.094 397.458 512.094 256.047 C 512.094 114.636 397.458 0 256.047 0 Z M 63.734 256.047 C 63.734 149.835 149.836 63.734 256.047 63.734 C 297.661 63.734 336.186 76.955 367.657 99.421 L 99.421 367.658 C 76.955 336.187 63.734 297.662 63.734 256.047 Z M 256.047 448.361 C 214.458 448.361 175.955 435.157 144.495 412.717 L 412.716 144.496 C 435.157 175.956 448.36 214.46 448.36 256.048 C 448.361 362.259 362.259 448.361 256.047 448.361 Z"
        fill="#000000"/>
</svg>
