<svg
    xmlns="http://www.w3.org/2000/svg"
    viewBox="0 0 388 388"
    id="vector">
    <path
        id="path_1"
        d="M 194.113 190.505 C 230.804 190.505 260.551 154.376 260.551 109.81 C 260.551 65.243 250.783 29.114 194.113 29.114 C 137.441 29.114 127.675 65.243 127.675 109.81 C 127.676 154.376 157.422 190.505 194.113 190.505 Z"
        fill="#000000"/>
    <path
        id="path_2"
        d="M 319.455 310.459 C 318.226 232.822 308.086 210.7 230.496 196.696 C 230.496 196.696 219.572 210.613 194.115 210.613 C 168.658 210.613 157.736 196.696 157.736 196.696 C 80.992 210.546 70.234 232.341 68.82 307.936 C 68.705 314.109 68.652 314.433 68.631 313.716 C 68.635 315.059 68.641 317.542 68.641 321.873 C 68.641 321.873 87.114 359.112 194.116 359.112 C 301.118 359.112 319.593 321.873 319.593 321.873 C 319.593 319.091 319.595 317.155 319.597 315.84 C 319.576 316.283 319.533 315.424 319.455 310.459 Z"
        fill="#000000"/>
    <path
        id="path_3"
        d="M 286.313 176.097 C 316.114 176.097 340.272 146.754 340.272 110.558 C 340.272 74.361 332.34 45.018 286.313 45.018 C 278.571 45.018 271.909 45.851 266.178 47.406 C 276.809 67.004 278.266 90.808 278.266 109.809 C 278.266 131.323 272.434 151.863 261.694 168.87 C 269.076 173.48 277.441 176.097 286.313 176.097 Z"
        fill="#000000"/>
    <path
        id="path_4"
        d="M 388.111 273.521 C 387.111 210.466 378.877 192.499 315.859 181.125 C 315.859 181.125 306.988 192.429 286.312 192.429 C 285.457 192.429 284.628 192.403 283.812 192.366 C 296.949 198.289 308.9 206.536 317.701 218.604 C 332.916 239.467 336.414 267.493 337.136 308.666 C 379.533 300.288 388.222 282.793 388.222 282.793 C 388.222 280.513 388.222 278.949 388.226 277.88 C 388.209 278.256 388.174 277.582 388.111 273.521 Z"
        fill="#000000"/>
    <path
        id="path_5"
        d="M 101.912 176.097 C 110.785 176.097 119.148 173.48 126.533 168.871 C 115.793 151.864 109.961 131.324 109.961 109.81 C 109.961 90.808 111.418 67.004 122.047 47.407 C 116.317 45.852 109.656 45.019 101.912 45.019 C 55.885 45.019 47.955 74.362 47.955 110.559 C 47.955 146.754 72.113 176.097 101.912 176.097 Z"
        fill="#000000"/>
    <path
        id="path_6"
        d="M 104.412 192.365 C 103.598 192.402 102.769 192.428 101.912 192.428 C 81.236 192.428 72.365 181.124 72.365 181.124 C 9.349 192.498 1.113 210.464 0.115 273.52 C 0.05 277.582 0.017 278.255 0 277.878 C 0.002 278.947 0.004 280.511 0.004 282.791 C 0.004 282.791 8.694 300.286 51.088 308.664 C 51.813 267.492 55.309 239.466 70.526 218.602 C 79.326 206.536 91.275 198.288 104.412 192.365 Z"
        fill="#000000"/>
</svg>
