<svg
    xmlns="http://www.w3.org/2000/svg"
    viewBox="0 0 108 108"
    id="vector">
    <g
        id="group"
        transform="scale(0.22 0.22)">
        <path
            id="path"
            d="M -1.004 0 L 501.004 0 L 501.004 501.004 L -1.004 501.004 Z"
            fill="#00a6ff"
            stroke="#00a6ff"/>
        <path
            id="path_7"
            d="M 427.001 443 L 427.092 429.615 L 77.091 429.615 L 77 443 Z"
            fill="#000000"
            fill-opacity="0.4"
            stroke-opacity="0.4"
            stroke-width="0.228161"/>
        <path
            id="path_8"
            d="M 427.001 433 L 427.092 415 L 77.091 415 L 77 433 Z"
            fill="#ffffff"
            stroke-width="0.264583"/>
        <path
            id="path_9"
            d="M 154.197 81.089 L 190.534 81.089 L 190.534 390.916 L 154.197 390.916 Z"
            fill="#ffffff"
            stroke-width="0.264583"/>
        <path
            id="path_10"
            d="M 348.583 115.669 L 689.11 146.338 L 690.068 310.575 L 333.97 188.325 L 256.932 173.254 L 179.895 158.182 L 187.201 121.854 L 194.508 85.526 L 271.545 100.598 Z"
            fill="#ffffff"
            fill-opacity="0.6"
            stroke-width="0.264583"/>
        <path
            id="path_11"
            d="M 190.532 190.661 L 154.258 183.605 C 154.258 183.605 154.07 179.542 154.195 174.083 L 190.532 181.142 Z"
            fill="#000000"
            fill-opacity="0.4"
            stroke-opacity="0.4"
            stroke-width="0.263823"/>
        <path
            id="path_12"
            d="M 355.601 95.179 L 352.582 110.192 L 208.299 81.814 L 190.707 166.836 L 335.493 195.161 L 332.473 210.174 L 133.045 171.433 L 121.198 161.646 L 131.341 111.212 L 141.485 60.778 C 141.485 60.778 155.732 55.968 158.651 56.554 C 161.57 57.141 355.601 95.179 355.601 95.179 Z"
            fill="#ffffff"
            stroke-width="0.264583"/>
    </g>
</svg>
