<svg
    xmlns="http://www.w3.org/2000/svg"
    viewBox="0 0 512 512"
    id="vector">
    <path
        id="path_1"
        d="M 419.036 224.661 L 408.273 224.661 L 408.273 246.974 C 408.273 246.974 418.166 246.969 419.036 246.969 C 425.359 246.969 430.702 241.861 430.702 235.815 C 430.702 229.769 425.359 224.661 419.036 224.661 Z"
        fill="#000000"/>
    <path
        id="path_2"
        d="M 298.548 224.661 C 281.267 224.661 267.208 238.72 267.208 256 C 267.208 273.28 281.267 287.339 298.548 287.339 C 315.828 287.339 329.887 273.28 329.887 256 C 329.887 238.72 315.828 224.661 298.548 224.661 Z"
        fill="#000000"/>
    <path
        id="path_3"
        d="M 362.038 0 L 149.962 0 L 0 149.961 L 0 362.039 L 149.962 512 L 362.038 512 L 512 362.039 L 512 149.961 Z M 138.688 285.707 C 135.414 304.609 117.585 318.329 96.297 318.329 C 79.458 318.329 63.635 311.526 52.885 299.663 L 75.115 279.518 C 80.114 285.035 88.033 288.329 96.297 288.329 C 104.135 288.329 108.586 283.708 109.127 280.586 C 109.366 279.206 110.001 275.541 101.938 272.511 C 96.715 270.548 92.856 269.603 89.124 268.689 C 83.41 267.29 77.501 265.844 70.721 261.436 C 58.697 253.622 54.635 240.373 54.843 230.58 C 55.156 215.781 65.317 202.123 80.126 196.597 C 105.158 187.255 125.287 202.207 137.314 211.14 L 119.427 235.224 C 101.729 222.081 96.324 222.573 90.614 224.704 C 86.472 226.25 84.872 229.519 84.837 231.217 C 84.8 232.946 85.569 235.308 87.069 236.282 C 89.46 237.836 91.298 238.335 96.258 239.55 C 100.415 240.568 105.59 241.835 112.49 244.428 C 131.511 251.575 141.794 267.778 138.688 285.707 Z M 231.512 224.661 L 205.818 224.661 L 205.818 317.34 L 175.818 317.34 L 175.818 224.661 L 150.33 224.661 L 150.33 194.661 L 231.513 194.661 L 231.513 224.661 Z M 298.548 317.339 C 264.725 317.339 237.208 289.822 237.208 256 C 237.208 222.178 264.725 194.661 298.548 194.661 C 332.37 194.661 359.887 222.178 359.887 256 C 359.887 289.822 332.37 317.339 298.548 317.339 Z M 419.036 276.969 C 418.113 276.969 408.23 276.973 408.23 276.973 L 408.23 317.339 L 378.23 317.339 L 378.23 194.661 L 419.036 194.661 C 442.011 194.661 460.702 213.123 460.702 235.815 C 460.702 258.507 442.011 276.969 419.036 276.969 Z"
        fill="#000000"/>
</svg>
