<svg
    xmlns="http://www.w3.org/2000/svg"
    viewBox="0 0 295 295"
    id="vector">
    <path
        id="path_1"
        d="M 156.849 59.364 C 152.898 61.213 146.815 61.149 142.912 59.197 C 129.686 52.609 114.81 48.859 99.036 48.859 C 44.343 48.858 0 93.199 0 147.888 C 0 202.583 44.336 246.924 99.036 246.924 C 114.811 246.924 129.687 243.166 142.912 236.575 C 146.814 234.635 152.897 234.558 156.849 236.417 C 169.376 242.298 183.33 245.613 198.062 245.613 C 251.95 245.613 295.783 201.775 295.783 147.887 C 295.783 94.005 251.95 50.166 198.062 50.166 C 183.33 50.167 169.376 53.486 156.849 59.364 Z M 169.976 226.724 C 165.868 225.246 165.411 221.453 168.518 218.391 C 186.743 200.435 198.052 175.492 198.052 147.888 C 198.052 120.286 186.742 95.349 168.518 77.391 C 165.411 74.326 165.868 70.533 169.976 69.058 C 178.76 65.889 188.195 64.127 198.052 64.127 C 244.236 64.127 281.818 101.698 281.818 147.883 C 281.818 194.072 244.236 231.644 198.052 231.644 C 188.194 231.644 178.76 229.887 169.976 226.724 Z"
        fill="#000000"/>
</svg>
